# 3ds Max Wavefront OBJ Exporter v0.97b - (c)2007 guruware
# File Created: 28.01.2018 12:03:15

mtllib Office02.mtl

#
# object Office02
#

v  -0.2382 13.5179 2.9883
v  0.0000 13.5179 -4.2000
v  -4.2000 13.5179 -4.2000
v  -4.2000 13.5179 2.9883
v  1.5362 13.5179 1.8291
v  2.5887 13.5179 1.1415
v  3.0262 13.5179 -4.2000
v  1.9738 13.5179 -4.2000
v  -5.0000 -0.0000 -5.0000
v  -5.0000 -0.0000 3.7883
v  -5.0000 1.9382 3.7883
v  -5.0000 1.9382 -5.0000
v  0.0000 -0.0000 3.7883
v  0.0000 1.9382 3.7883
v  1.2074 -0.0000 1.3258
v  2.2599 -0.0000 0.6382
v  2.2599 1.9382 0.6382
v  1.2074 1.9382 1.3258
v  5.0000 -0.0000 0.5217
v  5.0000 -0.0000 -5.0000
v  5.0000 1.9382 -5.0000
v  5.0000 1.9382 0.5217
v  3.0262 -0.0000 -5.0000
v  1.9738 -0.0000 -5.0000
v  1.9738 1.9382 -5.0000
v  3.0262 1.9382 -5.0000
v  0.0000 -0.0000 -5.0000
v  0.0000 1.9382 -5.0000
v  4.2000 13.5179 0.0887
v  4.2000 13.5179 -4.2000
v  3.0262 -0.0000 1.8112
v  3.0262 1.9382 1.8112
v  1.9738 12.0000 2.4988
v  0.0000 12.0000 3.7883
v  0.0000 11.5552 3.7883
v  1.9738 11.5552 2.4988
v  3.0262 12.0000 -5.0000
v  5.0000 12.0000 -5.0000
v  5.0000 11.5552 -5.0000
v  3.0262 11.5552 -5.0000
v  -5.0000 7.3493 3.7883
v  -5.0000 7.3493 -5.0000
v  0.0000 7.3493 3.7883
v  3.0262 7.3493 1.8112
v  1.9738 7.3493 2.4988
v  1.9738 1.9382 2.4988
v  5.0000 7.3493 -5.0000
v  5.0000 7.3493 0.5217
v  1.9738 7.3493 -5.0000
v  3.0262 7.3493 -5.0000
v  0.0000 7.3493 -5.0000
v  1.9738 -0.0000 2.4988
v  0.0000 7.6962 3.7883
v  1.9738 7.6962 2.4988
v  5.0000 7.6962 -5.0000
v  3.0262 7.6962 -5.0000
v  -5.0000 11.5552 3.7883
v  -5.0000 12.0000 3.7883
v  -5.0000 12.0000 -5.0000
v  -5.0000 11.5552 -5.0000
v  3.0262 11.5552 1.8112
v  3.0262 12.0000 1.8112
v  5.0000 12.0000 0.5217
v  5.0000 11.5552 0.5217
v  1.9738 11.5552 -5.0000
v  1.9738 12.0000 -5.0000
v  0.0000 12.0000 -5.0000
v  0.0000 11.5552 -5.0000
v  -5.0000 7.6962 3.7883
v  -5.0000 7.6962 -5.0000
v  3.0262 7.6962 1.8112
v  5.0000 7.6962 0.5217
v  1.9738 7.6962 -5.0000
v  0.0000 7.6962 -5.0000
v  0.1320 7.6962 3.9385
v  0.1320 7.3493 3.9385
v  2.1058 7.3493 2.6490
v  2.1058 7.6962 2.6490
v  -5.0000 7.6962 3.9385
v  -5.0000 7.3493 3.9385
v  3.1582 7.3493 1.9614
v  3.1582 7.6962 1.9614
v  5.1320 7.3493 -5.0000
v  5.1320 7.6962 -5.0000
v  5.1320 7.6962 0.6719
v  5.1320 7.3493 0.6719
v  -4.8000 12.0000 3.5883
v  -4.8000 12.0000 -4.8000
v  -0.0595 12.0000 3.5883
v  1.8644 12.0000 2.3314
v  2.9168 12.0000 1.6438
v  4.8000 12.0000 0.4134
v  4.8000 12.0000 -4.8000
v  3.0262 12.0000 -4.8000
v  1.9738 12.0000 -4.8000
v  0.0000 12.0000 -4.8000
# 96 vertices

vn 0.0000 1.0000 -0.0000
vn -1.0000 0.0000 -0.0000
vn 0.0000 0.0000 1.0000
vn 0.5469 0.0000 0.8372
vn 1.0000 0.0000 -0.0000
vn 0.0000 0.0000 -1.0000
vn -0.8372 0.0000 0.5469
vn 0.0000 -1.0000 -0.0000
vn 0.8372 0.0000 -0.5469
vn -0.9300 0.3676 -0.0000
vn 0.0000 0.3676 0.9300
vn 0.5086 0.3676 0.7786
vn 0.9300 0.3676 -0.0000
vn 0.0000 0.3676 -0.9300
# 14 vertex normals

vt 0.8873 1.0000 0.0000
vt 0.6952 1.0000 0.0000
vt 0.8620 1.0000 0.0000
vt 0.8485 1.0000 0.0000
vt 0.8232 1.0000 0.0000
# 5 texture coords

g Office02
usemtl Office02
s 3
f 1/1/1 2/2/1 3/2/1 4/1/1 
f 5/3/1 6/4/1 7/2/1 8/2/1 
s off
f 9/2/2 10/1/2 11/1/2 12/2/2 
f 10/1/3 13/1/3 14/1/3 11/1/3 
f 15/3/4 16/4/4 17/4/4 18/3/4 
f 19/5/5 20/2/5 21/2/5 22/5/5 
f 23/2/6 24/2/6 25/2/6 26/2/6 
f 27/2/6 9/2/6 12/2/6 28/2/6 
s 3
f 6/4/1 29/5/1 30/2/1 7/2/1 
f 8/2/1 2/2/1 1/1/1 5/3/1 
s off
f 31/4/4 19/5/4 22/5/4 32/4/4 
f 33/3/4 34/1/4 35/1/4 36/3/4 
f 24/2/6 27/2/6 28/2/6 25/2/6 
f 37/2/6 38/2/6 39/2/6 40/2/6 
f 11/1/2 41/1/2 42/2/2 12/2/2 
f 14/1/3 43/1/3 41/1/3 11/1/3 
f 32/4/4 44/4/4 45/3/4 46/3/4 
f 21/2/5 47/2/5 48/5/5 22/5/5 
f 25/2/6 49/2/6 50/2/6 26/2/6 
f 12/2/6 42/2/6 51/2/6 28/2/6 
f 22/5/4 48/5/4 44/4/4 32/4/4 
f 14/1/4 13/1/4 52/3/4 46/3/4 
f 28/2/6 51/2/6 49/2/6 25/2/6 
f 21/2/6 20/2/6 23/2/6 26/2/6 
f 31/4/7 32/4/7 17/4/7 16/4/7 
f 32/4/8 46/3/8 18/3/8 17/4/8 
f 46/3/9 52/3/9 15/3/9 18/3/9 
f 35/1/4 53/1/4 54/3/4 36/3/4 
f 39/2/6 55/2/6 56/2/6 40/2/6 
f 57/1/2 58/1/2 59/2/2 60/2/2 
f 35/1/3 34/1/3 58/1/3 57/1/3 
f 61/4/4 62/4/4 33/3/4 36/3/4 
f 39/2/5 38/2/5 63/5/5 64/5/5 
f 65/2/6 66/2/6 37/2/6 40/2/6 
f 60/2/6 59/2/6 67/2/6 68/2/6 
f 64/5/4 63/5/4 62/4/4 61/4/4 
f 68/2/6 67/2/6 66/2/6 65/2/6 
f 69/1/2 57/1/2 60/2/2 70/2/2 
f 53/1/3 35/1/3 57/1/3 69/1/3 
f 71/4/4 61/4/4 36/3/4 54/3/4 
f 55/2/5 39/2/5 64/5/5 72/5/5 
f 73/2/6 65/2/6 40/2/6 56/2/6 
f 70/2/6 60/2/6 68/2/6 74/2/6 
f 72/5/4 64/5/4 61/4/4 71/4/4 
f 74/2/6 68/2/6 65/2/6 73/2/6 
f 75/1/4 76/1/4 77/3/4 78/3/4 
f 55/2/6 47/2/6 50/2/6 56/2/6 
f 41/1/2 69/1/2 70/2/2 42/2/2 
f 76/1/3 75/1/3 79/1/3 80/1/3 
f 81/4/4 82/4/4 78/3/4 77/3/4 
f 83/2/5 84/2/5 85/5/5 86/5/5 
f 49/2/6 73/2/6 56/2/6 50/2/6 
f 42/2/6 70/2/6 74/2/6 51/2/6 
f 86/5/4 85/5/4 82/4/4 81/4/4 
f 51/2/6 74/2/6 73/2/6 49/2/6 
f 43/1/4 14/1/4 46/3/4 45/3/4 
f 47/2/6 21/2/6 26/2/6 50/2/6 
f 69/1/2 41/1/2 80/1/2 79/1/2 
f 41/1/8 43/1/8 76/1/8 80/1/8 
f 43/1/8 45/3/8 77/3/8 76/1/8 
f 45/3/8 44/4/8 81/4/8 77/3/8 
f 44/4/8 48/5/8 86/5/8 81/4/8 
f 48/5/8 47/2/8 83/2/8 86/5/8 
f 47/2/6 55/2/6 84/2/6 83/2/6 
f 55/2/1 72/5/1 85/5/1 84/2/1 
f 72/5/1 71/4/1 82/4/1 85/5/1 
f 71/4/1 54/3/1 78/3/1 82/4/1 
f 54/3/1 53/1/1 75/1/1 78/3/1 
f 53/1/1 69/1/1 79/1/1 75/1/1 
f 59/2/1 58/1/1 87/1/1 88/2/1 
f 58/1/1 34/1/1 89/1/1 87/1/1 
f 34/1/1 33/3/1 90/3/1 89/1/1 
f 33/3/1 62/4/1 91/4/1 90/3/1 
f 62/4/1 63/5/1 92/5/1 91/4/1 
f 63/5/1 38/2/1 93/2/1 92/5/1 
f 38/2/1 37/2/1 94/2/1 93/2/1 
f 37/2/1 66/2/1 95/2/1 94/2/1 
f 66/2/1 67/2/1 96/2/1 95/2/1 
f 67/2/1 59/2/1 88/2/1 96/2/1 
f 88/2/10 87/1/10 4/1/10 3/2/10 
f 87/1/11 89/1/11 1/1/11 4/1/11 
f 89/1/12 90/3/12 5/3/12 1/1/12 
f 90/3/12 91/4/12 6/4/12 5/3/12 
f 91/4/12 92/5/12 29/5/12 6/4/12 
f 92/5/13 93/2/13 30/2/13 29/5/13 
f 93/2/14 94/2/14 7/2/14 30/2/14 
f 94/2/14 95/2/14 8/2/14 7/2/14 
f 95/2/14 96/2/14 2/2/14 8/2/14 
f 96/2/14 88/2/14 3/2/14 2/2/14 
f 9/2/8 16/4/8 15/3/8 10/1/8 
f 15/3/8 52/3/8 13/1/8 10/1/8 
f 20/2/8 19/5/8 31/4/8 16/4/8 
f 24/2/8 23/2/8 20/2/8 16/4/8 
f 9/2/8 27/2/8 24/2/8 16/4/8 
# 94 polygons

