# 3ds Max Wavefront OBJ Exporter v0.97b - (c)2007 guruware
# File Created: 27.01.2018 14:46:27

mtllib Office02.mtl

#
# object Office02
#

v  -0.2382 13.5179 2.9883
v  0.0000 13.5179 -4.2000
v  -4.2000 13.5179 -4.2000
v  -4.2000 13.5179 2.9883
v  1.5362 13.5179 1.8291
v  2.5887 13.5179 1.1415
v  3.0262 13.5179 -4.2000
v  1.9738 13.5179 -4.2000
v  -5.0000 -0.0000 3.7883
v  -5.0000 -0.0000 5.0000
v  0.0000 -0.0000 5.0000
v  0.0000 -0.0000 3.7883
v  1.9738 -0.0000 5.0000
v  3.0262 -0.0000 5.0000
v  3.0262 -0.0000 1.8112
v  1.9738 -0.0000 2.4988
v  -5.0000 -0.0000 -5.0000
v  -5.0000 1.9382 3.7883
v  -5.0000 1.9382 -5.0000
v  0.0000 1.9382 3.7883
v  1.2074 -0.0000 1.3258
v  2.2599 -0.0000 0.6382
v  2.2599 1.9382 0.6382
v  1.2074 1.9382 1.3258
v  5.0000 -0.0000 0.5217
v  5.0000 -0.0000 -5.0000
v  5.0000 1.9382 -5.0000
v  5.0000 1.9382 0.5217
v  3.0262 -0.0000 -5.0000
v  1.9738 -0.0000 -5.0000
v  1.9738 1.9382 -5.0000
v  3.0262 1.9382 -5.0000
v  0.0000 -0.0000 -5.0000
v  0.0000 1.9382 -5.0000
v  4.2000 13.5179 0.0887
v  4.2000 13.5179 -4.2000
v  5.0000 -0.0000 5.0000
v  3.0262 1.9382 1.8112
v  1.9738 12.0000 2.4988
v  0.0000 12.0000 3.7883
v  0.0000 11.5552 3.7883
v  1.9738 11.5552 2.4988
v  3.0262 12.0000 -5.0000
v  5.0000 12.0000 -5.0000
v  5.0000 11.5552 -5.0000
v  3.0262 11.5552 -5.0000
v  -5.0000 7.3493 3.7883
v  -5.0000 7.3493 -5.0000
v  0.0000 7.3493 3.7883
v  3.0262 7.3493 1.8112
v  1.9738 7.3493 2.4988
v  1.9738 1.9382 2.4988
v  5.0000 7.3493 -5.0000
v  5.0000 7.3493 0.5217
v  1.9738 7.3493 -5.0000
v  3.0262 7.3493 -5.0000
v  0.0000 7.3493 -5.0000
v  0.0000 7.6962 3.7883
v  1.9738 7.6962 2.4988
v  5.0000 7.6962 -5.0000
v  3.0262 7.6962 -5.0000
v  -5.0000 11.5552 3.7883
v  -5.0000 12.0000 3.7883
v  -5.0000 12.0000 -5.0000
v  -5.0000 11.5552 -5.0000
v  3.0262 11.5552 1.8112
v  3.0262 12.0000 1.8112
v  5.0000 12.0000 0.5217
v  5.0000 11.5552 0.5217
v  1.9738 11.5552 -5.0000
v  1.9738 12.0000 -5.0000
v  0.0000 12.0000 -5.0000
v  0.0000 11.5552 -5.0000
v  -5.0000 7.6962 3.7883
v  -5.0000 7.6962 -5.0000
v  3.0262 7.6962 1.8112
v  5.0000 7.6962 0.5217
v  1.9738 7.6962 -5.0000
v  0.0000 7.6962 -5.0000
v  0.1320 7.6962 3.9385
v  0.1320 7.3493 3.9385
v  2.1058 7.3493 2.6490
v  2.1058 7.6962 2.6490
v  -5.0000 7.6962 3.9385
v  -5.0000 7.3493 3.9385
v  3.1582 7.3493 1.9614
v  3.1582 7.6962 1.9614
v  5.1320 7.3493 -5.0000
v  5.1320 7.6962 -5.0000
v  5.1320 7.6962 0.6719
v  5.1320 7.3493 0.6719
v  -4.8000 12.0000 3.5883
v  -4.8000 12.0000 -4.8000
v  -0.0595 12.0000 3.5883
v  1.8644 12.0000 2.3314
v  2.9168 12.0000 1.6438
v  4.8000 12.0000 0.4134
v  4.8000 12.0000 -4.8000
v  3.0262 12.0000 -4.8000
v  1.9738 12.0000 -4.8000
v  0.0000 12.0000 -4.8000
# 101 vertices

vn 0.0000 1.0000 -0.0000
vn -1.0000 0.0000 -0.0000
vn 0.0000 0.0000 1.0000
vn 0.5469 0.0000 0.8372
vn 1.0000 0.0000 -0.0000
vn 0.0000 0.0000 -1.0000
vn -0.8372 0.0000 0.5469
vn 0.0000 -1.0000 -0.0000
vn 0.8372 0.0000 -0.5469
vn -0.9300 0.3676 -0.0000
vn 0.0000 0.3676 0.9300
vn 0.5086 0.3676 0.7786
vn 0.9300 0.3676 -0.0000
vn 0.0000 0.3676 -0.9300
# 14 vertex normals

vt 0.8873 1.0000 0.0000
vt 0.6952 1.0000 0.0000
vt 0.8620 1.0000 0.0000
vt 0.8485 1.0000 0.0000
vt 0.9513 1.0000 0.0000
vt 0.8232 1.0000 0.0000
# 6 texture coords

g Office02
usemtl Office02
s 3
f 1/1/1 2/2/1 3/2/1 4/1/1 
f 5/3/1 6/4/1 7/2/1 8/2/1 
f 9/1/1 10/5/1 11/5/1 12/1/1 
f 13/5/1 14/5/1 15/4/1 16/3/1 
s off
f 17/2/2 9/1/2 18/1/2 19/2/2 
f 9/1/3 12/1/3 20/1/3 18/1/3 
f 21/3/4 22/4/4 23/4/4 24/3/4 
f 25/6/5 26/2/5 27/2/5 28/6/5 
f 29/2/6 30/2/6 31/2/6 32/2/6 
f 33/2/6 17/2/6 19/2/6 34/2/6 
s 3
f 6/4/1 35/6/1 36/2/1 7/2/1 
f 8/2/1 2/2/1 1/1/1 5/3/1 
f 14/5/1 37/5/1 25/6/1 15/4/1 
f 16/3/1 12/1/1 11/5/1 13/5/1 
s off
f 15/4/4 25/6/4 28/6/4 38/4/4 
f 39/3/4 40/1/4 41/1/4 42/3/4 
f 30/2/6 33/2/6 34/2/6 31/2/6 
f 43/2/6 44/2/6 45/2/6 46/2/6 
f 18/1/2 47/1/2 48/2/2 19/2/2 
f 20/1/3 49/1/3 47/1/3 18/1/3 
f 38/4/4 50/4/4 51/3/4 52/3/4 
f 27/2/5 53/2/5 54/6/5 28/6/5 
f 31/2/6 55/2/6 56/2/6 32/2/6 
f 19/2/6 48/2/6 57/2/6 34/2/6 
f 28/6/4 54/6/4 50/4/4 38/4/4 
f 20/1/4 12/1/4 16/3/4 52/3/4 
f 34/2/6 57/2/6 55/2/6 31/2/6 
f 27/2/6 26/2/6 29/2/6 32/2/6 
f 16/3/1 15/4/1 22/4/1 21/3/1 
f 15/4/7 38/4/7 23/4/7 22/4/7 
f 38/4/8 52/3/8 24/3/8 23/4/8 
f 52/3/9 16/3/9 21/3/9 24/3/9 
f 41/1/4 58/1/4 59/3/4 42/3/4 
f 45/2/6 60/2/6 61/2/6 46/2/6 
f 62/1/2 63/1/2 64/2/2 65/2/2 
f 41/1/3 40/1/3 63/1/3 62/1/3 
f 66/4/4 67/4/4 39/3/4 42/3/4 
f 45/2/5 44/2/5 68/6/5 69/6/5 
f 70/2/6 71/2/6 43/2/6 46/2/6 
f 65/2/6 64/2/6 72/2/6 73/2/6 
f 69/6/4 68/6/4 67/4/4 66/4/4 
f 73/2/6 72/2/6 71/2/6 70/2/6 
f 74/1/2 62/1/2 65/2/2 75/2/2 
f 58/1/3 41/1/3 62/1/3 74/1/3 
f 76/4/4 66/4/4 42/3/4 59/3/4 
f 60/2/5 45/2/5 69/6/5 77/6/5 
f 78/2/6 70/2/6 46/2/6 61/2/6 
f 75/2/6 65/2/6 73/2/6 79/2/6 
f 77/6/4 69/6/4 66/4/4 76/4/4 
f 79/2/6 73/2/6 70/2/6 78/2/6 
f 80/1/4 81/1/4 82/3/4 83/3/4 
f 60/2/6 53/2/6 56/2/6 61/2/6 
f 47/1/2 74/1/2 75/2/2 48/2/2 
f 81/1/3 80/1/3 84/1/3 85/1/3 
f 86/4/4 87/4/4 83/3/4 82/3/4 
f 88/2/5 89/2/5 90/6/5 91/6/5 
f 55/2/6 78/2/6 61/2/6 56/2/6 
f 48/2/6 75/2/6 79/2/6 57/2/6 
f 91/6/4 90/6/4 87/4/4 86/4/4 
f 57/2/6 79/2/6 78/2/6 55/2/6 
f 49/1/4 20/1/4 52/3/4 51/3/4 
f 53/2/6 27/2/6 32/2/6 56/2/6 
f 74/1/2 47/1/2 85/1/2 84/1/2 
f 47/1/8 49/1/8 81/1/8 85/1/8 
f 49/1/8 51/3/8 82/3/8 81/1/8 
f 51/3/8 50/4/8 86/4/8 82/3/8 
f 50/4/8 54/6/8 91/6/8 86/4/8 
f 54/6/8 53/2/8 88/2/8 91/6/8 
f 53/2/6 60/2/6 89/2/6 88/2/6 
f 60/2/1 77/6/1 90/6/1 89/2/1 
f 77/6/1 76/4/1 87/4/1 90/6/1 
f 76/4/1 59/3/1 83/3/1 87/4/1 
f 59/3/1 58/1/1 80/1/1 83/3/1 
f 58/1/1 74/1/1 84/1/1 80/1/1 
f 64/2/1 63/1/1 92/1/1 93/2/1 
f 63/1/1 40/1/1 94/1/1 92/1/1 
f 40/1/1 39/3/1 95/3/1 94/1/1 
f 39/3/1 67/4/1 96/4/1 95/3/1 
f 67/4/1 68/6/1 97/6/1 96/4/1 
f 68/6/1 44/2/1 98/2/1 97/6/1 
f 44/2/1 43/2/1 99/2/1 98/2/1 
f 43/2/1 71/2/1 100/2/1 99/2/1 
f 71/2/1 72/2/1 101/2/1 100/2/1 
f 72/2/1 64/2/1 93/2/1 101/2/1 
f 93/2/10 92/1/10 4/1/10 3/2/10 
f 92/1/11 94/1/11 1/1/11 4/1/11 
f 94/1/12 95/3/12 5/3/12 1/1/12 
f 95/3/12 96/4/12 6/4/12 5/3/12 
f 96/4/12 97/6/12 35/6/12 6/4/12 
f 97/6/13 98/2/13 36/2/13 35/6/13 
f 98/2/14 99/2/14 7/2/14 36/2/14 
f 99/2/14 100/2/14 8/2/14 7/2/14 
f 100/2/14 101/2/14 2/2/14 8/2/14 
f 101/2/14 93/2/14 3/2/14 2/2/14 
# 94 polygons

