# 3ds Max Wavefront OBJ Exporter v0.97b - (c)2007 guruware
# File Created: 28.01.2018 12:15:14

mtllib Streetlight.mtl

#
# object Streetlight
#

v  -4.4701 0.0000 -5.5334
v  -4.5648 0.0000 -5.6636
v  -4.5692 1.9583 -5.6499
v  -4.4846 1.9583 -5.5334
v  -4.7179 0.0000 -5.6139
v  -4.7062 1.9583 -5.6054
v  -4.7179 0.0000 -5.4528
v  -4.7062 1.9583 -5.4614
v  -4.5648 0.0000 -5.4031
v  -4.5692 1.9583 -5.4169
v  -4.7754 6.8714 -4.7522
v  -4.4475 6.8714 -4.7515
v  -4.4475 7.0179 -4.7515
v  -4.7754 7.0179 -4.7522
v  -4.6846 6.8639 -5.7017
v  -4.5279 6.8639 -5.7014
v  -4.4435 6.8714 -5.2733
v  -4.7713 6.8714 -5.2740
v  -4.5279 6.8990 -5.7014
v  -4.4435 7.0179 -5.2733
v  -4.6846 6.8990 -5.7017
v  -4.7713 7.0179 -5.2740
v  -4.5342 6.7714 -5.1835
v  -4.5368 6.7714 -4.8417
v  -4.6847 6.7714 -4.8420
v  -4.6820 6.7714 -5.1838
v  -4.5810 2.0388 -5.6136
v  -4.5227 2.0388 -5.5334
v  -4.6754 2.0388 -5.5830
v  -4.6754 2.0388 -5.4837
v  -4.5810 2.0388 -5.4531
v  -4.5896 6.8714 -5.5872
v  -4.5505 6.8714 -5.5334
v  -4.6529 6.8714 -5.5666
v  -4.6529 6.8714 -5.5001
v  -4.5896 6.8714 -5.4795
# 36 vertices

vn 1.0000 0.0074 0.0000
vn 0.3090 0.0074 -0.9510
vn 0.3023 0.2070 -0.9305
vn 0.9783 0.2070 -0.0000
vn -0.8090 0.0074 -0.5878
vn -0.7915 0.2070 -0.5751
vn -0.8090 0.0074 0.5878
vn -0.7915 0.2070 0.5751
vn 0.3090 0.0074 0.9510
vn 0.3023 0.2070 0.9305
vn -0.0022 0.0000 1.0000
vn -0.0000 -0.9998 0.0176
vn 0.9811 0.0000 -0.1936
vn 0.0006 0.9635 -0.2677
vn -0.9800 0.0000 -0.1988
vn 0.0000 -1.0000 -0.0000
vn 1.0000 0.0000 0.0077
vn 0.0000 1.0000 -0.0000
vn -1.0000 0.0000 -0.0077
vn -0.0016 -0.6690 0.7433
vn -0.7433 -0.6690 -0.0057
vn 0.0016 -0.6690 -0.7433
vn 0.7433 -0.6690 0.0057
vn 0.2998 0.2418 -0.9228
vn 0.9703 0.2418 -0.0000
vn -0.7850 0.2418 -0.5703
vn -0.7850 0.2418 0.5703
vn 0.2998 0.2418 0.9228
vn 0.3090 0.0058 -0.9510
vn 1.0000 0.0058 0.0000
vn -0.8090 0.0058 -0.5878
vn -0.8090 0.0058 0.5878
vn 0.3090 0.0058 0.9510
# 33 vertex normals

vt 0.7500 0.0000 1.0000
vt 0.9500 0.0000 1.0000
vt 0.9500 0.2850 1.0000
vt 0.7500 0.2850 1.0000
vt 1.1500 0.0000 1.0000
vt 1.1500 0.2850 1.0000
vt 0.1500 0.0000 1.0000
vt 0.3500 0.0000 1.0000
vt 0.3500 0.2850 1.0000
vt 0.1500 0.2850 1.0000
vt 0.5500 0.0000 1.0000
vt 0.5500 0.2850 1.0000
vt 0.3500 1.0000 1.0000
vt 0.5500 1.0000 1.0000
vt 0.9500 0.3108 1.0000
vt 0.7500 0.3108 1.0000
vt 1.1500 0.3108 1.0000
vt 0.3500 0.3108 1.0000
vt 0.1500 0.3108 1.0000
vt 0.5500 0.3108 1.0000
vt 0.9500 1.0000 1.0000
vt 0.7500 1.0000 1.0000
vt 1.1500 1.0000 1.0000
vt 0.1500 1.0000 1.0000
# 24 texture coords

g Streetlight
usemtl Office02
s 1
f 1/1/1 2/2/2 3/3/3 4/4/4 
f 2/2/2 5/5/5 6/6/6 3/3/3 
f 5/7/5 7/8/7 8/9/8 6/10/6 
f 7/8/7 9/11/9 10/12/10 8/9/8 
f 9/11/9 1/1/1 4/4/4 10/12/10 
s off
f 11/13/11 12/14/11 13/14/11 14/13/11 
f 15/13/12 16/14/12 17/14/12 18/13/12 
f 16/14/13 19/14/13 20/14/13 17/14/13 
f 19/14/14 21/13/14 22/13/14 20/14/14 
f 21/13/15 15/13/15 18/13/15 22/13/15 
f 23/14/16 24/14/16 25/13/16 26/13/16 
f 20/14/17 13/14/17 12/14/17 17/14/17 
f 22/13/18 14/13/18 13/14/18 20/14/18 
f 18/13/19 11/13/19 14/13/19 22/13/19 
f 12/14/20 11/13/20 25/13/20 24/14/20 
f 11/13/21 18/13/21 26/13/21 25/13/21 
f 18/13/22 17/14/22 23/14/22 26/13/22 
f 17/14/23 12/14/23 24/14/23 23/14/23 
s 1
f 3/3/3 27/15/24 28/16/25 4/4/4 
f 6/6/6 29/17/26 27/15/24 3/3/3 
f 8/9/8 30/18/27 29/19/26 6/10/6 
f 10/12/10 31/20/28 30/18/27 8/9/8 
f 4/4/4 28/16/25 31/20/28 10/12/10 
f 27/15/24 32/21/29 33/22/30 28/16/25 
f 29/17/26 34/23/31 32/21/29 27/15/24 
f 30/18/27 35/13/32 34/24/31 29/19/26 
f 31/20/28 36/14/33 35/13/32 30/18/27 
f 28/16/25 33/22/30 36/14/33 31/20/28 
# 28 polygons

