# 3ds Max Wavefront OBJ Exporter v0.97b - (c)2007 guruware
# File Created: 28.01.2018 13:00:08

mtllib Tree.mtl

#
# object Tree
#

v  0.1343 0.3243 -0.0986
v  0.0397 0.3243 -0.2289
v  0.0352 1.4614 -0.1674
v  0.1198 1.4614 -0.0509
v  -0.1135 0.3243 -0.1791
v  -0.1018 1.4614 -0.1229
v  -0.1135 0.3243 -0.0181
v  -0.1018 1.4614 0.0211
v  0.0397 0.3243 0.0317
v  0.0352 1.4614 0.0656
v  0.0395 2.5500 -0.1866
v  0.0979 2.5500 -0.1063
v  -0.0549 2.5500 -0.1559
v  -0.0549 2.5500 -0.0567
v  0.0395 2.5500 -0.0260
v  0.0309 4.1839 -0.1061
v  0.0700 4.1839 -0.0523
v  -0.0323 4.1839 -0.0855
v  -0.0323 4.1839 -0.0190
v  0.0309 4.1839 0.0015
v  -0.6742 5.4282 0.5819
v  -0.7194 5.5163 0.1342
v  -0.9627 4.4462 0.4502
v  -0.7991 4.9335 0.8778
v  -1.0084 3.8101 0.8109
v  -0.7850 4.3555 1.0527
v  -0.7106 3.9227 0.5162
v  -0.6063 3.9748 0.8720
v  -0.6512 5.3756 -0.3744
v  -0.8733 5.1331 -0.4543
v  -0.8831 4.4510 -0.0740
v  -0.6871 3.9473 0.0077
v  -0.4933 4.3206 -0.4666
v  -0.6421 4.0518 -0.4686
v  -0.6787 3.7603 -0.2982
v  -0.5850 3.4654 -0.1997
v  0.5538 6.1980 0.4244
v  0.7529 5.6383 0.6029
v  0.9443 4.7436 0.3640
v  0.7682 5.4538 0.1963
v  0.7491 5.0823 0.8184
v  0.6774 4.1024 0.6950
v  0.5216 4.7687 0.8591
v  0.3786 3.9055 0.7980
v  1.0824 4.8618 -0.4668
v  0.7802 5.3784 -0.3663
v  1.0214 4.1794 -0.1358
v  0.5241 3.9007 0.2303
v  0.7952 5.1704 -1.0168
v  0.6589 5.4229 -0.7995
v  0.8312 4.5956 -0.8033
v  0.6794 4.0971 -0.3772
v  -0.3956 5.2882 0.9874
v  -0.3650 5.9769 0.5807
v  -0.3414 4.4916 1.1500
v  -0.2546 4.1893 0.9235
v  0.2652 5.8267 0.9834
v  0.0788 6.7181 0.4566
v  0.3155 5.0042 1.0772
v  0.2412 4.9208 0.8710
v  -0.3206 3.6534 0.7163
v  -0.2618 3.4189 0.1644
v  -0.1820 3.3233 -0.2864
v  0.1201 4.3485 0.5848
v  0.2059 3.6845 0.1743
v  0.3197 3.9080 -0.4060
v  -0.2307 3.6738 -0.6481
v  -0.2191 4.0559 -0.7954
v  -0.1176 4.3763 -0.5813
v  0.4355 3.9983 -0.8431
v  0.4133 4.5889 -0.9172
v  0.3152 5.2240 -0.7805
v  -0.2024 4.9881 -0.3385
v  -0.3232 5.6651 0.1796
v  0.3665 5.4355 -0.4592
v  0.2094 6.5665 -0.0869
v  0.0222 0.3866 -0.1652
v  0.0605 0.3866 -0.1352
v  0.5024 0.3016 -0.4563
v  0.1947 0.3016 -0.6963
v  0.0771 0.3866 -0.0895
v  0.6356 0.3016 -0.0895
v  1.1941 0.2166 -0.0895
v  0.9442 0.2166 -0.7773
v  0.3673 0.2166 -1.2275
v  -0.0668 0.3866 -0.1363
v  -0.0265 0.3866 -0.1635
v  -0.1952 0.3016 -0.6829
v  -0.5186 0.3016 -0.4645
v  -0.3640 0.2166 -1.2024
v  -0.9704 0.2166 -0.7928
v  -0.0668 0.3866 -0.0428
v  -0.0802 0.3866 -0.0895
v  -0.6264 0.3016 -0.0895
v  -0.5186 0.3016 0.2855
v  -1.1725 0.2166 -0.0895
v  -0.9704 0.2166 0.6138
v  0.0222 0.3866 -0.0139
v  -0.0265 0.3866 -0.0155
v  -0.1952 0.3016 0.5039
v  0.1947 0.3016 0.5173
v  -0.3640 0.2166 1.0233
v  0.3673 0.2166 1.0484
v  0.0605 0.3866 -0.0438
v  0.5024 0.3016 0.2772
v  0.9442 0.2166 0.5983
v  1.0020 0.3772 -0.8192
v  1.2671 0.3772 -0.0895
v  1.2998 0.3772 -0.0895
v  1.0278 0.3772 -0.8380
v  0.3899 0.3772 -1.2969
v  0.4000 0.3772 -1.3280
v  -0.3860 0.3772 -1.2702
v  -0.3959 0.3772 -1.3007
v  -1.0294 0.3772 -0.8357
v  -1.0559 0.3772 -0.8549
v  -1.2439 0.3772 -0.0895
v  -1.2759 0.3772 -0.0895
v  -1.0294 0.3772 0.6567
v  -1.0559 0.3772 0.6759
v  -0.3860 0.3772 1.0912
v  -0.3959 0.3772 1.1216
v  0.3899 0.3772 1.1178
v  0.4000 0.3772 1.1489
v  1.0020 0.3772 0.6402
v  1.0278 0.3772 0.6590
v  1.3686 0.2000 -0.0895
v  1.0823 0.2000 -0.8776
v  0.4212 0.2000 -1.3934
v  -0.4167 0.2000 -1.3647
v  -1.1116 0.2000 -0.8954
v  -1.3432 0.2000 -0.0895
v  -1.1116 0.2000 0.7163
v  -0.4167 0.2000 1.1856
v  0.4212 0.2000 1.2144
v  1.0823 0.2000 0.6986
# 136 vertices

vn 0.9998 0.0134 -0.0156
vn 0.3041 0.0526 -0.9512
vn 0.3116 0.0175 -0.9500
vn 0.9997 0.0166 0.0173
vn -0.8011 0.0378 -0.5974
vn -0.8178 0.0275 -0.5748
vn -0.8164 -0.0115 0.5774
vn -0.8014 0.0318 0.5972
vn 0.3136 -0.0271 0.9492
vn 0.3016 0.0254 0.9531
vn 0.3069 0.0151 -0.9516
vn 0.9997 0.0183 -0.0158
vn -0.8002 0.0263 -0.5991
vn -0.8151 0.0376 0.5782
vn 0.3162 0.0325 0.9481
vn 0.3124 0.0484 -0.9487
vn 0.9998 0.0166 0.0125
vn -0.8144 0.0362 -0.5791
vn -0.8031 -0.0027 0.5958
vn 0.3054 -0.0144 0.9521
vn -0.8463 0.4035 0.3477
vn -0.7601 0.6403 -0.1107
vn -0.9939 0.1092 0.0125
vn -0.7782 0.2988 0.5523
vn -0.4432 -0.7626 0.4711
vn -0.4664 -0.1399 0.8735
vn -0.1913 -0.9589 0.2097
vn -0.4103 -0.5856 0.6991
vn -0.0842 0.6674 -0.7399
vn -0.6198 0.2629 -0.7394
vn -0.9590 -0.1659 -0.2300
vn -0.8477 -0.5279 0.0529
vn -0.1949 0.1558 -0.9684
vn -0.6536 -0.1056 -0.7495
vn -0.8582 -0.3353 -0.3887
vn -0.5769 -0.7812 0.2388
vn 0.8342 0.4953 0.2426
vn 0.9057 0.3111 0.2878
vn 0.9264 0.0371 0.3748
vn 0.9168 0.3912 -0.0801
vn 0.8736 -0.0202 0.4862
vn 0.6949 -0.4426 0.5668
vn 0.2256 -0.2242 0.9481
vn -0.2266 -0.7799 0.5835
vn 0.9773 0.1106 -0.1805
vn 0.5493 0.8241 -0.1382
vn 0.8303 -0.5503 -0.0885
vn 0.3818 -0.9024 0.1999
vn 0.3193 0.3759 -0.8699
vn 0.0321 0.9119 -0.4091
vn 0.7065 -0.3469 -0.6168
vn 0.4635 -0.7655 -0.4463
vn -0.3829 0.3265 0.8642
vn -0.7565 0.5899 0.2824
vn 0.1092 -0.2137 0.9708
vn 0.4347 -0.4284 0.7922
vn 0.1875 0.4043 0.8952
vn -0.1603 0.9522 0.2599
vn 0.2653 -0.2827 0.9218
vn 0.1829 -0.7284 0.6603
vn 0.0406 -0.7521 0.6578
vn -0.1276 -0.9760 0.1766
vn 0.1227 -0.9862 -0.1113
vn 0.0376 -0.5527 0.8325
vn 0.5547 -0.7935 0.2503
vn 0.6589 -0.7453 -0.1020
vn -0.2620 -0.5215 -0.8120
vn -0.3811 -0.0137 -0.9244
vn -0.6700 0.4303 -0.6050
vn 0.4702 -0.5629 -0.6797
vn -0.2009 0.0022 -0.9796
vn -0.5571 0.5447 -0.6268
vn -0.1528 0.3089 -0.9387
vn -0.4960 0.6357 -0.5916
vn -0.0209 0.6545 -0.7558
vn 0.0450 0.7707 -0.6356
vn 0.0465 0.9886 -0.1431
vn 0.1244 0.9881 -0.0904
vn 0.1505 0.9886 -0.0000
vn -0.1217 0.9886 -0.0884
vn -0.0475 0.9881 -0.1463
vn -0.1217 0.9886 0.0884
vn -0.1538 0.9881 -0.0000
vn -0.1538 0.9881 0.0000
vn 0.0465 0.9886 0.1431
vn -0.0475 0.9881 0.1463
vn 0.1244 0.9881 0.0904
vn 0.0000 1.0000 -0.0000
vn -0.8644 0.3928 0.3140
vn -0.8644 0.3928 -0.3140
vn -0.5657 0.3928 -0.7250
vn 0.0315 0.3928 -0.9191
vn 0.5147 0.3928 -0.7621
vn 0.8838 0.3928 -0.2540
vn 0.8838 0.3928 0.2540
vn 0.5147 0.3928 0.7621
vn 0.0315 0.3928 0.9191
vn -0.5657 0.3928 0.7250
vn 0.8829 0.3429 -0.3207
vn 0.5779 0.3429 -0.7406
vn -0.0322 0.3429 -0.9388
vn -0.5258 0.3429 -0.7784
vn -0.9028 0.3429 -0.2595
vn -0.9028 0.3429 0.2595
vn -0.5258 0.3429 0.7784
vn -0.0322 0.3429 0.9388
vn 0.5779 0.3429 0.7406
vn 0.8829 0.3429 0.3207
# 108 vertex normals

vt 0.5744 0.0257 0.0000
vt 0.5768 0.0418 0.0000
vt 0.4208 0.0418 0.0000
vt 0.4189 0.0257 0.0000
vt 0.5782 0.0579 0.0000
vt 0.4222 0.0579 0.0000
vt 0.5785 0.0740 0.0000
vt 0.4229 0.0740 0.0000
vt 0.5787 0.0902 0.0000
vt 0.4230 0.0902 0.0000
vt 0.5794 0.1063 0.0000
vt 0.4226 0.1063 0.0000
vt 0.2720 0.0418 0.0000
vt 0.2708 0.0257 0.0000
vt 0.2729 0.0579 0.0000
vt 0.2733 0.0740 0.0000
vt 0.2734 0.0902 0.0000
vt 0.2730 0.1063 0.0000
vt 0.0483 0.0418 0.0000
vt 0.0473 0.0257 0.0000
vt 0.0488 0.0579 0.0000
vt 0.0491 0.0740 0.0000
vt 0.0491 0.0902 0.0000
vt 0.0492 0.1063 0.0000
vt 0.7399 0.8356 0.0000
vt 0.7264 0.7729 0.0000
vt 0.8162 0.7436 0.0000
vt 0.7858 0.8595 0.0000
vt 0.0337 0.4793 0.0000
vt 0.0104 0.3502 0.0000
vt 0.0488 0.3603 0.0000
vt 0.0577 0.4628 0.0000
vt 0.1278 0.3584 0.0000
vt 0.1138 0.4257 0.0000
vt 0.7149 0.6791 0.0000
vt 0.7768 0.6460 0.0000
vt 0.0578 0.2263 0.0000
vt 0.0877 0.2490 0.0000
vt 0.1340 0.2671 0.0000
vt 0.6749 0.5848 0.0000
vt 0.7075 0.5521 0.0000
vt 0.1353 0.1508 0.0000
vt 0.1481 0.1756 0.0000
vt 0.1588 0.1960 0.0000
vt 0.4662 0.9081 0.0000
vt 0.4352 0.9321 0.0000
vt 0.3704 0.8239 0.0000
vt 0.4273 0.8125 0.0000
vt 0.3914 0.5795 0.0000
vt 0.3701 0.5574 0.0000
vt 0.4151 0.4680 0.0000
vt 0.4850 0.4881 0.0000
vt 0.3313 0.5189 0.0000
vt 0.3497 0.4406 0.0000
vt 0.3464 0.6941 0.0000
vt 0.4267 0.7156 0.0000
vt 0.4828 0.3276 0.0000
vt 0.5192 0.3288 0.0000
vt 0.3732 0.3397 0.0000
vt 0.3681 0.6217 0.0000
vt 0.4230 0.6541 0.0000
vt 0.4669 0.2344 0.0000
vt 0.4841 0.2239 0.0000
vt 0.4119 0.2528 0.0000
vt 0.7062 0.9291 0.0000
vt 0.6737 0.8933 0.0000
vt 0.1320 0.5278 0.0000
vt 0.1074 0.5656 0.0000
vt 0.1720 0.4705 0.0000
vt 0.5593 0.9594 0.0000
vt 0.5591 0.9311 0.0000
vt 0.2667 0.5679 0.0000
vt 0.2566 0.6217 0.0000
vt 0.2740 0.5184 0.0000
vt 0.1983 0.3937 0.0000
vt 0.2142 0.2811 0.0000
vt 0.2412 0.1939 0.0000
vt 0.2966 0.4278 0.0000
vt 0.3068 0.3137 0.0000
vt 0.3401 0.2328 0.0000
vt 0.2544 0.1466 0.0000
vt 0.2559 0.1209 0.0000
vt 0.5995 0.5907 0.0000
vt 0.5984 0.5208 0.0000
vt 0.3864 0.1761 0.0000
vt 0.4076 0.1468 0.0000
vt 0.4885 0.6235 0.0000
vt 0.4518 0.5511 0.0000
vt 0.6270 0.6784 0.0000
vt 0.6522 0.8070 0.0000
vt 0.5033 0.6907 0.0000
vt 0.5232 0.8352 0.0000
vt 0.7380 0.2617 0.0000
vt 0.7451 0.2651 0.0000
vt 0.7309 0.3521 0.0000
vt 0.6740 0.3251 0.0000
vt 0.7529 0.2642 0.0000
vt 0.7933 0.3447 0.0000
vt 0.8338 0.4252 0.0000
vt 0.7167 0.4391 0.0000
vt 0.6101 0.3886 0.0000
vt 0.7357 0.2468 0.0000
vt 0.7347 0.2546 0.0000
vt 0.6477 0.2680 0.0000
vt 0.6557 0.2055 0.0000
vt 0.5607 0.2813 0.0000
vt 0.5757 0.1642 0.0000
vt 0.7492 0.2400 0.0000
vt 0.7415 0.2415 0.0000
vt 0.7019 0.1627 0.0000
vt 0.7637 0.1511 0.0000
vt 0.6623 0.0840 0.0000
vt 0.7782 0.0621 0.0000
vt 0.7598 0.2507 0.0000
vt 0.7560 0.2439 0.0000
vt 0.8185 0.1818 0.0000
vt 0.8487 0.2371 0.0000
vt 0.8811 0.1198 0.0000
vt 0.9377 0.2234 0.0000
vt 0.7582 0.2584 0.0000
vt 0.8365 0.2989 0.0000
vt 0.9147 0.3393 0.0000
vt 0.7148 0.4504 0.0000
vt 0.8391 0.4357 0.0000
vt 0.8414 0.4404 0.0000
vt 0.7140 0.4555 0.0000
vt 0.6017 0.3969 0.0000
vt 0.5980 0.4006 0.0000
vt 0.5493 0.2831 0.0000
vt 0.5442 0.2838 0.0000
vt 0.5653 0.1588 0.0000
vt 0.5606 0.1564 0.0000
vt 0.6571 0.0737 0.0000
vt 0.6548 0.0691 0.0000
vt 0.7801 0.0505 0.0000
vt 0.7809 0.0453 0.0000
vt 0.8892 0.1117 0.0000
vt 0.8929 0.1081 0.0000
vt 0.9493 0.2216 0.0000
vt 0.9545 0.2208 0.0000
vt 0.9249 0.3445 0.0000
vt 0.9295 0.3469 0.0000
vt 0.8464 0.4503 0.0000
vt 0.7122 0.4663 0.0000
vt 0.5901 0.4084 0.0000
vt 0.5335 0.2855 0.0000
vt 0.5507 0.1513 0.0000
vt 0.6500 0.0594 0.0000
vt 0.7827 0.0343 0.0000
vt 0.9006 0.1004 0.0000
vt 0.9655 0.2192 0.0000
vt 0.9391 0.3519 0.0000
# 152 texture coords

g Tree
usemtl Tree
s 1
f 1/1/1 2/2/2 3/3/3 4/4/4 
f 2/2/2 5/5/5 6/6/6 3/3/3 
f 5/5/5 7/7/7 8/8/8 6/6/6 
f 7/7/7 9/9/9 10/10/10 8/8/8 
f 9/9/9 1/11/1 4/12/4 10/10/10 
f 3/3/3 11/13/11 12/14/12 4/4/4 
f 6/6/6 13/15/13 11/13/11 3/3/3 
f 8/8/8 14/16/14 13/15/13 6/6/6 
f 10/10/10 15/17/15 14/16/14 8/8/8 
f 4/12/4 12/18/12 15/17/15 10/10/10 
f 11/13/11 16/19/16 17/20/17 12/14/12 
f 13/15/13 18/21/18 16/19/16 11/13/11 
f 14/16/14 19/22/19 18/21/18 13/15/13 
f 15/17/15 20/23/20 19/22/19 14/16/14 
f 12/18/12 17/24/17 20/23/20 15/17/15 
f 21/25/21 22/26/22 23/27/23 24/28/24 
f 24/29/24 23/30/23 25/31/25 26/32/26 
f 26/32/26 25/31/25 27/33/27 28/34/28 
f 22/26/22 29/35/29 30/36/30 23/27/23 
f 23/30/23 30/37/30 31/38/31 25/31/25 
f 25/31/25 31/38/31 32/39/32 27/33/27 
f 29/35/29 33/40/33 34/41/34 30/36/30 
f 30/37/30 34/42/34 35/43/35 31/38/31 
f 31/38/31 35/43/35 36/44/36 32/39/32 
f 37/45/37 38/46/38 39/47/39 40/48/40 
f 38/49/38 41/50/41 42/51/42 39/52/39 
f 41/50/41 43/53/43 44/54/44 42/51/42 
f 40/48/40 39/47/39 45/55/45 46/56/46 
f 39/52/39 42/51/42 47/57/47 45/58/45 
f 42/51/42 44/54/44 48/59/48 47/57/47 
f 46/56/46 45/55/45 49/60/49 50/61/50 
f 45/58/45 47/57/47 51/62/51 49/63/49 
f 47/57/47 48/59/48 52/64/52 51/62/51 
f 21/25/21 24/28/24 53/65/53 54/66/54 
f 24/29/24 26/32/26 55/67/55 53/68/53 
f 26/32/26 28/34/28 56/69/56 55/67/55 
f 54/66/54 53/65/53 57/70/57 58/71/58 
f 53/68/53 55/67/55 59/72/59 57/73/57 
f 55/67/55 56/69/56 60/74/60 59/72/59 
f 58/71/58 57/70/57 38/46/38 37/45/37 
f 57/73/57 59/72/59 41/50/41 38/49/38 
f 59/72/59 60/74/60 43/53/43 41/50/41 
f 28/34/28 27/33/27 61/75/61 56/69/56 
f 27/33/27 32/39/32 62/76/62 61/75/61 
f 32/39/32 36/44/36 63/77/63 62/76/62 
f 56/69/56 61/75/61 64/78/64 60/74/60 
f 61/75/61 62/76/62 65/79/65 64/78/64 
f 62/76/62 63/77/63 66/80/66 65/79/65 
f 60/74/60 64/78/64 44/54/44 43/53/43 
f 64/78/64 65/79/65 48/59/48 44/54/44 
f 65/79/65 66/80/66 52/64/52 48/59/48 
f 36/44/36 35/43/35 67/81/67 63/77/63 
f 35/43/35 34/42/34 68/82/68 67/81/67 
f 34/41/34 33/40/33 69/83/69 68/84/68 
f 63/77/63 67/81/67 70/85/70 66/80/66 
f 67/81/67 68/82/68 71/86/71 70/85/70 
f 68/84/68 69/83/69 72/87/72 71/88/71 
f 66/80/66 70/85/70 51/62/51 52/64/52 
f 70/85/70 71/86/71 49/63/49 51/62/51 
f 71/88/71 72/87/72 50/61/50 49/60/49 
f 33/40/33 29/35/29 73/89/73 69/83/69 
f 29/35/29 22/26/22 74/90/74 73/89/73 
f 22/26/22 21/25/21 54/66/54 74/90/74 
f 69/83/69 73/89/73 75/91/75 72/87/72 
f 73/89/73 74/90/74 76/92/76 75/91/75 
f 74/90/74 54/66/54 58/71/58 76/92/76 
f 72/87/72 75/91/75 46/56/46 50/61/50 
f 75/91/75 76/92/76 40/48/40 46/56/46 
f 76/92/76 58/71/58 37/45/37 40/48/40 
f 77/93/77 78/94/78 79/95/78 80/96/77 
f 78/94/78 81/97/79 82/98/79 79/95/78 
f 83/99/79 84/100/78 79/95/78 82/98/79 
f 84/100/78 85/101/77 80/96/77 79/95/78 
f 86/102/80 87/103/81 88/104/81 89/105/80 
f 87/103/81 77/93/77 80/96/77 88/104/81 
f 85/101/77 90/106/81 88/104/81 80/96/77 
f 90/106/81 91/107/80 89/105/80 88/104/81 
f 92/108/82 93/109/83 94/110/83 95/111/82 
f 93/109/83 86/102/80 89/105/80 94/110/83 
f 91/107/80 96/112/84 94/110/83 89/105/80 
f 96/112/84 97/113/82 95/111/82 94/110/83 
f 98/114/85 99/115/86 100/116/86 101/117/85 
f 99/115/86 92/108/82 95/111/82 100/116/86 
f 97/113/82 102/118/86 100/116/86 95/111/82 
f 102/118/86 103/119/85 101/117/85 100/116/86 
f 81/97/79 104/120/87 105/121/87 82/98/79 
f 104/120/87 98/114/85 101/117/85 105/121/87 
f 103/119/85 106/122/87 105/121/87 101/117/85 
f 106/122/87 83/99/79 82/98/79 105/121/87 
s off
f 107/123/88 108/124/88 109/125/88 110/126/88 
f 111/127/88 107/123/88 110/126/88 112/128/88 
f 113/129/88 111/127/88 112/128/88 114/130/88 
f 115/131/88 113/129/88 114/130/88 116/132/88 
f 117/133/88 115/131/88 116/132/88 118/134/88 
f 119/135/88 117/133/88 118/134/88 120/136/88 
f 121/137/88 119/135/88 120/136/88 122/138/88 
f 123/139/88 121/137/88 122/138/88 124/140/88 
f 125/141/88 123/139/88 124/140/88 126/142/88 
f 108/124/88 125/141/88 126/142/88 109/125/88 
f 84/100/89 83/99/89 108/124/89 107/123/89 
f 83/99/90 106/122/90 125/141/90 108/124/90 
f 106/122/91 103/119/91 123/139/91 125/141/91 
f 103/119/92 102/118/92 121/137/92 123/139/92 
f 102/118/93 97/113/93 119/135/93 121/137/93 
f 97/113/94 96/112/94 117/133/94 119/135/94 
f 96/112/95 91/107/95 115/131/95 117/133/95 
f 91/107/96 90/106/96 113/129/96 115/131/96 
f 90/106/97 85/101/97 111/127/97 113/129/97 
f 85/101/98 84/100/98 107/123/98 111/127/98 
f 127/143/99 128/144/99 110/126/99 109/125/99 
f 128/144/100 129/145/100 112/128/100 110/126/100 
f 129/145/101 130/146/101 114/130/101 112/128/101 
f 130/146/102 131/147/102 116/132/102 114/130/102 
f 131/147/103 132/148/103 118/134/103 116/132/103 
f 132/148/104 133/149/104 120/136/104 118/134/104 
f 133/149/105 134/150/105 122/138/105 120/136/105 
f 134/150/106 135/151/106 124/140/106 122/138/106 
f 135/151/107 136/152/107 126/142/107 124/140/107 
f 136/152/108 127/143/108 109/125/108 126/142/108 
# 119 polygons

