# 3ds Max Wavefront OBJ Exporter v0.97b - (c)2007 guruware
# File Created: 27.01.2018 19:00:34

mtllib Road-Intersection.mtl

#
# object Sidewalk_Intersection
#

v  3.0000 0.2000 5.0000
v  5.0000 0.2000 5.0000
v  3.2679 0.2000 4.0000
v  3.0681 0.2000 4.4824
v  4.0000 0.2000 3.2679
v  5.0000 0.2000 3.0000
v  4.4824 0.2000 3.0681
v  3.5858 0.2000 3.5858
v  3.0000 0.0000 5.0000
v  3.0681 0.0000 4.4824
v  3.2679 0.0000 4.0000
v  3.5858 0.0000 3.5858
v  4.0000 0.0000 3.2679
v  4.4824 0.0000 3.0681
v  5.0000 0.0000 3.0000
v  -3.0000 0.2000 5.0000
v  -3.0681 0.2000 4.4824
v  -3.2679 0.2000 4.0000
v  -5.0000 0.2000 5.0000
v  -4.0000 0.2000 3.2679
v  -4.4824 0.2000 3.0681
v  -5.0000 0.2000 3.0000
v  -3.5858 0.2000 3.5858
v  -3.0000 0.0000 5.0000
v  -3.0681 0.0000 4.4824
v  -3.2679 0.0000 4.0000
v  -3.5858 0.0000 3.5858
v  -4.0000 0.0000 3.2679
v  -4.4824 0.0000 3.0681
v  -5.0000 0.0000 3.0000
v  3.0000 0.2000 -5.0000
v  3.0681 0.2000 -4.4824
v  3.2679 0.2000 -4.0000
v  5.0000 0.2000 -5.0000
v  4.0000 0.2000 -3.2679
v  4.4824 0.2000 -3.0681
v  5.0000 0.2000 -3.0000
v  3.5858 0.2000 -3.5858
v  3.0000 0.0000 -5.0000
v  3.0681 0.0000 -4.4824
v  3.2679 0.0000 -4.0000
v  3.5858 0.0000 -3.5858
v  4.0000 0.0000 -3.2679
v  4.4824 0.0000 -3.0681
v  5.0000 0.0000 -3.0000
v  -3.0000 0.2000 -5.0000
v  -5.0000 0.2000 -5.0000
v  -3.2679 0.2000 -4.0000
v  -3.0681 0.2000 -4.4824
v  -4.0000 0.2000 -3.2679
v  -5.0000 0.2000 -3.0000
v  -4.4824 0.2000 -3.0681
v  -3.5858 0.2000 -3.5858
v  -3.0000 0.0000 -5.0000
v  -3.0681 0.0000 -4.4824
v  -3.2679 0.0000 -4.0000
v  -3.5858 0.0000 -3.5858
v  -4.0000 0.0000 -3.2679
v  -4.4824 0.0000 -3.0681
v  -5.0000 0.0000 -3.0000
# 60 vertices

vn 0.0000 1.0000 0.0000
vn 0.0000 1.0000 -0.0000
vn -0.9914 0.0000 -0.1305
vn -0.9659 0.0000 -0.2588
vn -0.8660 0.0000 -0.5000
vn -0.7071 0.0000 -0.7071
vn -0.5000 0.0000 -0.8660
vn -0.2588 0.0000 -0.9659
vn -0.1305 0.0000 -0.9914
vn -0.0000 1.0000 0.0000
vn 0.9914 0.0000 -0.1305
vn 0.9659 0.0000 -0.2588
vn 0.8660 0.0000 -0.5000
vn 0.7071 0.0000 -0.7071
vn 0.5000 0.0000 -0.8660
vn 0.2588 0.0000 -0.9659
vn 0.1305 0.0000 -0.9914
vn -0.9914 0.0000 0.1305
vn -0.9659 0.0000 0.2588
vn -0.8660 0.0000 0.5000
vn -0.7071 0.0000 0.7071
vn -0.5000 0.0000 0.8660
vn -0.2588 0.0000 0.9659
vn -0.1305 0.0000 0.9914
vn -0.0000 1.0000 -0.0000
vn 0.9914 0.0000 0.1305
vn 0.9659 0.0000 0.2588
vn 0.8660 0.0000 0.5000
vn 0.7071 0.0000 0.7071
vn 0.5000 0.0000 0.8660
vn 0.2588 0.0000 0.9659
vn 0.1305 0.0000 0.9914
# 32 vertex normals

vt 0.0781 0.1013 0.0000
vt 0.9527 0.1013 0.0000
vt 0.1953 0.5386 0.0000
vt 0.1079 0.3277 0.0000
vt 0.5154 0.8587 0.0000
vt 0.9527 0.9759 0.0000
vt 0.7263 0.9461 0.0000
vt 0.3343 0.7197 0.0000
vt 0.9565 0.0210 0.0000
vt 0.9565 0.0794 0.0000
vt 0.8040 0.0794 0.0000
vt 0.8040 0.0210 0.0000
vt 0.6515 0.0794 0.0000
vt 0.6515 0.0210 0.0000
vt 0.4990 0.0794 0.0000
vt 0.4990 0.0210 0.0000
vt 0.3465 0.0794 0.0000
vt 0.3465 0.0210 0.0000
vt 0.1940 0.0794 0.0000
vt 0.1940 0.0210 0.0000
vt 0.0415 0.0794 0.0000
vt 0.0415 0.0210 0.0000
# 22 texture coords

g Sidewalk_Intersection
usemtl Sidewalk_Intersection
s 1
f 1/1/1 2/2/1 3/3/1 4/4/2 
f 5/5/1 2/2/1 6/6/1 7/7/2 
f 3/3/1 2/2/1 5/5/1 8/8/2 
s 2
f 9/9/3 1/10/3 4/11/4 10/12/4 
f 10/12/4 4/11/4 3/13/5 11/14/5 
f 11/14/5 3/13/5 8/15/6 12/16/6 
f 12/16/6 8/15/6 5/17/7 13/18/7 
f 13/18/7 5/17/7 7/19/8 14/20/8 
f 14/20/8 7/19/8 6/21/9 15/22/9 
s 1
f 16/1/10 17/4/2 18/3/10 19/2/10 
f 20/5/10 21/7/2 22/6/10 19/2/10 
f 18/3/10 23/8/2 20/5/10 19/2/10 
s 2
f 24/9/11 25/12/12 17/11/12 16/10/11 
f 25/12/12 26/14/13 18/13/13 17/11/12 
f 26/14/13 27/16/14 23/15/14 18/13/13 
f 27/16/14 28/18/15 20/17/15 23/15/14 
f 28/18/15 29/20/16 21/19/16 20/17/15 
f 29/20/16 30/22/17 22/21/17 21/19/16 
s 1
f 31/1/2 32/4/2 33/3/2 34/2/2 
f 35/5/2 36/7/2 37/6/2 34/2/2 
f 33/3/2 38/8/2 35/5/2 34/2/2 
s 2
f 39/9/18 40/12/19 32/11/19 31/10/18 
f 40/12/19 41/14/20 33/13/20 32/11/19 
f 41/14/20 42/16/21 38/15/21 33/13/20 
f 42/16/21 43/18/22 35/17/22 38/15/21 
f 43/18/22 44/20/23 36/19/23 35/17/22 
f 44/20/23 45/22/24 37/21/24 36/19/23 
s 1
f 46/1/25 47/2/25 48/3/25 49/4/2 
f 50/5/25 47/2/25 51/6/25 52/7/2 
f 48/3/25 47/2/25 50/5/25 53/8/2 
s 2
f 54/9/26 46/10/26 49/11/27 55/12/27 
f 55/12/27 49/11/27 48/13/28 56/14/28 
f 56/14/28 48/13/28 53/15/29 57/16/29 
f 57/16/29 53/15/29 50/17/30 58/18/30 
f 58/18/30 50/17/30 52/19/31 59/20/31 
f 59/20/31 52/19/31 51/21/32 60/22/32 
# 36 polygons

#
# object Road_Intersection
#

v  -2.0000 0.0000 3.0000
v  -2.0000 0.0000 4.0000
v  0.0000 0.0000 4.0000
v  0.0000 0.0000 3.0000
v  -4.0000 0.0000 2.0000
v  -3.0000 0.0000 2.0000
v  -3.0000 0.0000 -0.0000
v  -4.0000 0.0000 -0.0000
v  -2.0000 0.0000 -0.0000
v  -2.0000 0.0000 2.0000
v  0.0000 0.0000 2.0000
v  0.0000 0.0000 -0.0000
v  -3.0000 0.0000 5.0000
v  -2.0000 0.0000 5.0000
v  -3.0681 0.0000 4.4824
v  -3.2679 0.0000 4.0000
v  -3.5858 0.0000 3.5858
v  -4.0000 0.0000 3.2679
v  -4.4824 0.0000 3.0681
v  -5.0000 0.0000 2.0000
v  -5.0000 0.0000 3.0000
v  0.0000 0.0000 5.0000
v  -5.0000 0.0000 -0.0000
v  2.0000 0.0000 3.0000
v  2.0000 0.0000 4.0000
v  4.0000 0.0000 2.0000
v  4.0000 0.0000 -0.0000
v  3.0000 0.0000 -0.0000
v  3.0000 0.0000 2.0000
v  2.0000 0.0000 -0.0000
v  2.0000 0.0000 2.0000
v  3.0000 0.0000 5.0000
v  3.0681 0.0000 4.4824
v  2.0000 0.0000 5.0000
v  3.2679 0.0000 4.0000
v  3.5858 0.0000 3.5858
v  4.0000 0.0000 3.2679
v  4.4824 0.0000 3.0681
v  5.0000 0.0000 3.0000
v  5.0000 0.0000 2.0000
v  5.0000 0.0000 -0.0000
v  -2.0000 0.0000 -3.0000
v  0.0000 0.0000 -3.0000
v  0.0000 0.0000 -4.0000
v  -2.0000 0.0000 -4.0000
v  -4.0000 0.0000 -2.0000
v  -3.0000 0.0000 -2.0000
v  0.0000 0.0000 -2.0000
v  -2.0000 0.0000 -2.0000
v  -3.0000 0.0000 -5.0000
v  -3.0681 0.0000 -4.4824
v  -2.0000 0.0000 -5.0000
v  -3.2679 0.0000 -4.0000
v  -3.5858 0.0000 -3.5858
v  -4.0000 0.0000 -3.2679
v  -4.4824 0.0000 -3.0681
v  -5.0000 0.0000 -3.0000
v  -5.0000 0.0000 -2.0000
v  0.0000 0.0000 -5.0000
v  2.0000 0.0000 -3.0000
v  2.0000 0.0000 -4.0000
v  4.0000 0.0000 -2.0000
v  3.0000 0.0000 -2.0000
v  2.0000 0.0000 -2.0000
v  3.0000 0.0000 -5.0000
v  2.0000 0.0000 -5.0000
v  3.0681 0.0000 -4.4824
v  3.2679 0.0000 -4.0000
v  3.5858 0.0000 -3.5858
v  4.0000 0.0000 -3.2679
v  4.4824 0.0000 -3.0681
v  5.0000 0.0000 -2.0000
v  5.0000 0.0000 -3.0000
# 73 vertices

vn 0.0000 1.0000 -0.0000
# 1 vertex normals

vt 0.3137 0.2205 0.0000
vt 0.3137 0.1273 0.0000
vt 0.5000 0.1273 0.0000
vt 0.5000 0.2205 0.0000
vt 0.1273 0.3137 0.0000
vt 0.2205 0.3137 0.0000
vt 0.2205 0.5000 0.0000
vt 0.1273 0.5000 0.0000
vt 0.3137 0.5000 0.0000
vt 0.3137 0.3137 0.0000
vt 0.5000 0.3137 0.0000
vt 0.5000 0.5000 0.0000
vt 0.2205 0.0342 0.0000
vt 0.3137 0.0342 0.0000
vt 0.2142 0.0824 0.0000
vt 0.1955 0.1273 0.0000
vt 0.1659 0.1659 0.0000
vt 0.1273 0.1955 0.0000
vt 0.0824 0.2142 0.0000
vt 0.0342 0.3137 0.0000
vt 0.0342 0.2205 0.0000
vt 0.5000 0.0342 0.0000
vt 0.0342 0.5000 0.0000
vt 0.6863 0.2205 0.0000
vt 0.6863 0.1273 0.0000
vt 0.8727 0.3137 0.0000
vt 0.8727 0.5000 0.0000
vt 0.7795 0.5000 0.0000
vt 0.7795 0.3137 0.0000
vt 0.6863 0.5000 0.0000
vt 0.6863 0.3137 0.0000
vt 0.7795 0.0342 0.0000
vt 0.7858 0.0824 0.0000
vt 0.6863 0.0342 0.0000
vt 0.8045 0.1273 0.0000
vt 0.8341 0.1659 0.0000
vt 0.8727 0.1955 0.0000
vt 0.9176 0.2142 0.0000
vt 0.9658 0.2205 0.0000
vt 0.9658 0.3137 0.0000
vt 0.9658 0.5000 0.0000
vt 0.3137 0.7795 0.0000
vt 0.5000 0.7795 0.0000
vt 0.5000 0.8727 0.0000
vt 0.3137 0.8727 0.0000
vt 0.1273 0.6863 0.0000
vt 0.2205 0.6863 0.0000
vt 0.5000 0.6863 0.0000
vt 0.3137 0.6863 0.0000
vt 0.2205 0.9658 0.0000
vt 0.2142 0.9176 0.0000
vt 0.3137 0.9658 0.0000
vt 0.1955 0.8727 0.0000
vt 0.1659 0.8341 0.0000
vt 0.1273 0.8045 0.0000
vt 0.0824 0.7858 0.0000
vt 0.0342 0.7795 0.0000
vt 0.0342 0.6863 0.0000
vt 0.5000 0.9658 0.0000
vt 0.6863 0.7795 0.0000
vt 0.6863 0.8727 0.0000
vt 0.8727 0.6863 0.0000
vt 0.7795 0.6863 0.0000
vt 0.6863 0.6863 0.0000
vt 0.7795 0.9658 0.0000
vt 0.6863 0.9658 0.0000
vt 0.7858 0.9176 0.0000
vt 0.8045 0.8727 0.0000
vt 0.8341 0.8341 0.0000
vt 0.8727 0.8045 0.0000
vt 0.9176 0.7858 0.0000
vt 0.9658 0.6863 0.0000
vt 0.9658 0.7795 0.0000
# 73 texture coords

g Road_Intersection
usemtl Road_Intersection
s 1
f 61/23/33 62/24/33 63/25/33 64/26/33 
f 65/27/33 66/28/33 67/29/33 68/30/33 
f 69/31/33 70/32/33 71/33/33 72/34/33 
f 73/35/33 74/36/33 62/24/33 75/37/33 
f 75/37/33 62/24/33 61/23/33 76/38/33 
f 76/38/33 61/23/33 70/32/33 77/39/33 
f 77/39/33 70/32/33 66/28/33 78/40/33 
f 78/40/33 66/28/33 65/27/33 79/41/33 
f 79/41/33 65/27/33 80/42/33 81/43/33 
f 62/24/33 74/36/33 82/44/33 63/25/33 
f 64/26/33 71/33/33 70/32/33 61/23/33 
f 66/28/33 70/32/33 69/31/33 67/29/33 
f 68/30/33 83/45/33 80/42/33 65/27/33 
f 84/46/33 64/26/33 63/25/33 85/47/33 
f 86/48/33 87/49/33 88/50/33 89/51/33 
f 90/52/33 72/34/33 71/33/33 91/53/33 
f 92/54/33 93/55/33 85/47/33 94/56/33 
f 93/55/33 95/57/33 84/46/33 85/47/33 
f 95/57/33 96/58/33 91/53/33 84/46/33 
f 96/58/33 97/59/33 89/51/33 91/53/33 
f 97/59/33 98/60/33 86/48/33 89/51/33 
f 98/60/33 99/61/33 100/62/33 86/48/33 
f 85/47/33 63/25/33 82/44/33 94/56/33 
f 64/26/33 84/46/33 91/53/33 71/33/33 
f 89/51/33 88/50/33 90/52/33 91/53/33 
f 87/49/33 86/48/33 100/62/33 101/63/33 
f 102/64/33 103/65/33 104/66/33 105/67/33 
f 106/68/33 68/30/33 67/29/33 107/69/33 
f 69/31/33 72/34/33 108/70/33 109/71/33 
f 110/72/33 111/73/33 105/67/33 112/74/33 
f 111/73/33 113/75/33 102/64/33 105/67/33 
f 113/75/33 114/76/33 109/71/33 102/64/33 
f 114/76/33 115/77/33 107/69/33 109/71/33 
f 115/77/33 116/78/33 106/68/33 107/69/33 
f 116/78/33 117/79/33 118/80/33 106/68/33 
f 105/67/33 104/66/33 119/81/33 112/74/33 
f 103/65/33 102/64/33 109/71/33 108/70/33 
f 107/69/33 67/29/33 69/31/33 109/71/33 
f 68/30/33 106/68/33 118/80/33 83/45/33 
f 120/82/33 121/83/33 104/66/33 103/65/33 
f 122/84/33 123/85/33 88/50/33 87/49/33 
f 90/52/33 124/86/33 108/70/33 72/34/33 
f 125/87/33 126/88/33 121/83/33 127/89/33 
f 127/89/33 121/83/33 120/82/33 128/90/33 
f 128/90/33 120/82/33 124/86/33 129/91/33 
f 129/91/33 124/86/33 123/85/33 130/92/33 
f 130/92/33 123/85/33 122/84/33 131/93/33 
f 131/93/33 122/84/33 132/94/33 133/95/33 
f 121/83/33 126/88/33 119/81/33 104/66/33 
f 103/65/33 108/70/33 124/86/33 120/82/33 
f 123/85/33 124/86/33 90/52/33 88/50/33 
f 87/49/33 101/63/33 132/94/33 122/84/33 
# 52 polygons

