# 3ds Max Wavefront OBJ Exporter v0.97b - (c)2007 guruware
# File Created: 27.01.2018 00:55:07

mtllib Road-Intersection.mtl

#
# object Sidewalk_Intersection
#

v  -3.0000 0.2000 -5.0000
v  -5.0000 0.2000 -5.0000
v  -3.2679 0.2000 -4.0000
v  -3.0681 0.2000 -4.4824
v  -4.0000 0.2000 -3.2679
v  -5.0000 0.2000 -3.0000
v  -4.4824 0.2000 -3.0681
v  -3.5858 0.2000 -3.5858
v  -3.0000 0.0000 -5.0000
v  -3.0681 0.0000 -4.4824
v  -3.2679 0.0000 -4.0000
v  -3.5858 0.0000 -3.5858
v  -4.0000 0.0000 -3.2679
v  -4.4824 0.0000 -3.0681
v  -5.0000 0.0000 -3.0000
v  3.0000 0.2000 -5.0000
v  3.0681 0.2000 -4.4824
v  3.2679 0.2000 -4.0000
v  5.0000 0.2000 -5.0000
v  4.0000 0.2000 -3.2679
v  4.4824 0.2000 -3.0681
v  5.0000 0.2000 -3.0000
v  3.5858 0.2000 -3.5858
v  3.0000 0.0000 -5.0000
v  3.0681 0.0000 -4.4824
v  3.2679 0.0000 -4.0000
v  3.5858 0.0000 -3.5858
v  4.0000 0.0000 -3.2679
v  4.4824 0.0000 -3.0681
v  5.0000 0.0000 -3.0000
v  -3.0000 0.2000 5.0000
v  -3.0681 0.2000 4.4824
v  -3.2679 0.2000 4.0000
v  -5.0000 0.2000 5.0000
v  -4.0000 0.2000 3.2679
v  -4.4824 0.2000 3.0681
v  -5.0000 0.2000 3.0000
v  -3.5858 0.2000 3.5858
v  -3.0000 0.0000 5.0000
v  -3.0681 0.0000 4.4824
v  -3.2679 0.0000 4.0000
v  -3.5858 0.0000 3.5858
v  -4.0000 0.0000 3.2679
v  -4.4824 0.0000 3.0681
v  -5.0000 0.0000 3.0000
v  3.0000 0.2000 5.0000
v  5.0000 0.2000 5.0000
v  3.2679 0.2000 4.0000
v  3.0681 0.2000 4.4824
v  4.0000 0.2000 3.2679
v  5.0000 0.2000 3.0000
v  4.4824 0.2000 3.0681
v  3.5858 0.2000 3.5858
v  3.0000 0.0000 5.0000
v  3.0681 0.0000 4.4824
v  3.2679 0.0000 4.0000
v  3.5858 0.0000 3.5858
v  4.0000 0.0000 3.2679
v  4.4824 0.0000 3.0681
v  5.0000 0.0000 3.0000
# 60 vertices

vn -0.0000 1.0000 -0.0000
vn 0.0000 1.0000 -0.0000
vn 0.9914 0.0000 0.1305
vn 0.9239 0.0000 0.3827
vn 0.7934 0.0000 0.6088
vn 0.6088 0.0000 0.7934
vn 0.3827 0.0000 0.9239
vn 0.1305 0.0000 0.9914
vn -0.9914 0.0000 0.1305
vn -0.9239 0.0000 0.3827
vn -0.7934 0.0000 0.6088
vn -0.6088 0.0000 0.7934
vn -0.3827 0.0000 0.9239
vn -0.1305 0.0000 0.9914
vn -0.0000 1.0000 0.0000
vn 0.9914 0.0000 -0.1305
vn 0.9239 0.0000 -0.3827
vn 0.7934 0.0000 -0.6088
vn 0.6088 0.0000 -0.7934
vn 0.3827 0.0000 -0.9239
vn 0.1305 0.0000 -0.9914
vn 0.0000 1.0000 0.0000
vn -0.9914 0.0000 -0.1305
vn -0.9239 0.0000 -0.3827
vn -0.7934 0.0000 -0.6088
vn -0.6088 0.0000 -0.7934
vn -0.3827 0.0000 -0.9239
vn -0.1305 0.0000 -0.9914
# 28 vertex normals

vt 0.5000 1.0000 -0.2500
vt 0.5000 0.5000 -0.2500
vt 0.2500 0.9330 -0.2500
vt 0.3706 0.9830 -0.2500
vt 0.0670 0.7500 -0.2500
vt 0.0000 0.5000 -0.2500
vt 0.0170 0.6294 -0.2500
vt 0.1464 0.8536 -0.2500
# 8 texture coords

g Sidewalk_Intersection
usemtl Sidewalk_Intersection
s 1
f 1/1/1 2/2/1 3/3/1 4/4/2 
f 5/5/1 2/2/1 6/6/1 7/7/2 
f 3/3/1 2/2/1 5/5/1 8/8/2 
s off
f 9/1/3 1/1/3 4/4/3 10/4/3 
f 10/4/4 4/4/4 3/3/4 11/3/4 
f 11/3/5 3/3/5 8/8/5 12/8/5 
f 12/8/6 8/8/6 5/5/6 13/5/6 
f 13/5/7 5/5/7 7/7/7 14/7/7 
f 14/7/8 7/7/8 6/6/8 15/6/8 
s 1
f 16/1/2 17/4/2 18/3/2 19/2/2 
f 20/5/2 21/7/2 22/6/2 19/2/2 
f 18/3/2 23/8/2 20/5/2 19/2/2 
s off
f 24/1/9 25/4/9 17/4/9 16/1/9 
f 25/4/10 26/3/10 18/3/10 17/4/10 
f 26/3/11 27/8/11 23/8/11 18/3/11 
f 27/8/12 28/5/12 20/5/12 23/8/12 
f 28/5/13 29/7/13 21/7/13 20/5/13 
f 29/7/14 30/6/14 22/6/14 21/7/14 
s 1
f 31/1/15 32/4/2 33/3/15 34/2/15 
f 35/5/15 36/7/2 37/6/15 34/2/15 
f 33/3/15 38/8/2 35/5/15 34/2/15 
s off
f 39/1/16 40/4/16 32/4/16 31/1/16 
f 40/4/17 41/3/17 33/3/17 32/4/17 
f 41/3/18 42/8/18 38/8/18 33/3/18 
f 42/8/19 43/5/19 35/5/19 38/8/19 
f 43/5/20 44/7/20 36/7/20 35/5/20 
f 44/7/21 45/6/21 37/6/21 36/7/21 
s 1
f 46/1/22 47/2/22 48/3/22 49/4/2 
f 50/5/22 47/2/22 51/6/22 52/7/2 
f 48/3/22 47/2/22 50/5/22 53/8/2 
s off
f 54/1/23 46/1/23 49/4/23 55/4/23 
f 55/4/24 49/4/24 48/3/24 56/3/24 
f 56/3/25 48/3/25 53/8/25 57/8/25 
f 57/8/26 53/8/26 50/5/26 58/5/26 
f 58/5/27 50/5/27 52/7/27 59/7/27 
f 59/7/28 52/7/28 51/6/28 60/6/28 
# 36 polygons

#
# object Road_Intersection
#

v  -2.0000 0.0000 3.0000
v  -2.0000 0.0000 4.0000
v  0.0000 0.0000 4.0000
v  0.0000 0.0000 3.0000
v  -4.0000 0.0000 2.0000
v  -3.0000 0.0000 2.0000
v  -3.0000 0.0000 -0.0000
v  -4.0000 0.0000 -0.0000
v  -2.0000 0.0000 -0.0000
v  -2.0000 0.0000 2.0000
v  0.0000 0.0000 2.0000
v  0.0000 0.0000 -0.0000
v  -3.0000 0.0000 5.0000
v  -2.0000 0.0000 5.0000
v  -3.0681 0.0000 4.4824
v  -3.2679 0.0000 4.0000
v  -3.5858 0.0000 3.5858
v  -4.0000 0.0000 3.2679
v  -4.4824 0.0000 3.0681
v  -5.0000 0.0000 2.0000
v  -5.0000 0.0000 3.0000
v  0.0000 0.0000 5.0000
v  -5.0000 0.0000 -0.0000
v  2.0000 0.0000 3.0000
v  2.0000 0.0000 4.0000
v  4.0000 0.0000 2.0000
v  4.0000 0.0000 -0.0000
v  3.0000 0.0000 -0.0000
v  3.0000 0.0000 2.0000
v  2.0000 0.0000 -0.0000
v  2.0000 0.0000 2.0000
v  3.0000 0.0000 5.0000
v  3.0681 0.0000 4.4824
v  2.0000 0.0000 5.0000
v  3.2679 0.0000 4.0000
v  3.5858 0.0000 3.5858
v  4.0000 0.0000 3.2679
v  4.4824 0.0000 3.0681
v  5.0000 0.0000 3.0000
v  5.0000 0.0000 2.0000
v  5.0000 0.0000 -0.0000
v  -2.0000 0.0000 -3.0000
v  0.0000 0.0000 -3.0000
v  0.0000 0.0000 -4.0000
v  -2.0000 0.0000 -4.0000
v  -4.0000 0.0000 -2.0000
v  -3.0000 0.0000 -2.0000
v  0.0000 0.0000 -2.0000
v  -2.0000 0.0000 -2.0000
v  -3.0000 0.0000 -5.0000
v  -3.0681 0.0000 -4.4824
v  -2.0000 0.0000 -5.0000
v  -3.2679 0.0000 -4.0000
v  -3.5858 0.0000 -3.5858
v  -4.0000 0.0000 -3.2679
v  -4.4824 0.0000 -3.0681
v  -5.0000 0.0000 -3.0000
v  -5.0000 0.0000 -2.0000
v  0.0000 0.0000 -5.0000
v  2.0000 0.0000 -3.0000
v  2.0000 0.0000 -4.0000
v  4.0000 0.0000 -2.0000
v  3.0000 0.0000 -2.0000
v  2.0000 0.0000 -2.0000
v  3.0000 0.0000 -5.0000
v  2.0000 0.0000 -5.0000
v  3.0681 0.0000 -4.4824
v  3.2679 0.0000 -4.0000
v  3.5858 0.0000 -3.5858
v  4.0000 0.0000 -3.2679
v  4.4824 0.0000 -3.0681
v  5.0000 0.0000 -2.0000
v  5.0000 0.0000 -3.0000
# 73 vertices

vn 0.0000 1.0000 -0.0000
# 1 vertex normals

vt 0.2500 0.1667 0.0000
vt 0.2500 0.0833 0.0000
vt 0.5000 0.0833 0.0000
vt 0.5000 0.1667 0.0000
vt 0.0833 0.2500 0.0000
vt 0.1667 0.2500 0.0000
vt 0.1667 0.5000 0.0000
vt 0.0833 0.5000 0.0000
vt 0.2500 0.5000 0.0000
vt 0.2500 0.2500 0.0000
vt 0.5000 0.2500 0.0000
vt 0.5000 0.5000 0.0000
vt -3.0000 -5.0000 0.0000
vt 0.2500 0.0000 0.0000
vt -3.0681 -4.4824 0.0000
vt -3.2679 -4.0000 0.0000
vt -3.5858 -3.5858 0.0000
vt -4.0000 -3.2679 0.0000
vt -4.4824 -3.0681 0.0000
vt 0.0000 0.2500 0.0000
vt -5.0000 -3.0000 0.0000
vt 0.5000 0.0000 0.0000
vt 0.0000 0.5000 0.0000
# 23 texture coords

g Road_Intersection
usemtl Road_Intersection
s 1
f 61/9/29 62/10/29 63/11/29 64/12/29 
f 65/13/29 66/14/29 67/15/29 68/16/29 
f 69/17/29 70/18/29 71/19/29 72/20/29 
s 10
f 73/21/29 74/22/29 62/10/29 75/23/29 
s 4
f 75/23/29 62/10/29 61/9/29 76/24/29 
s 8
f 76/24/29 61/9/29 70/18/29 77/25/29 
s 16
f 77/25/29 70/18/29 66/14/29 78/26/29 
s 2
f 78/26/29 66/14/29 65/13/29 79/27/29 
s 13
f 79/27/29 65/13/29 80/28/29 81/29/29 
s 1
f 62/10/29 74/22/29 82/30/29 63/11/29 
f 64/12/29 71/19/29 70/18/29 61/9/29 
f 66/14/29 70/18/29 69/17/29 67/15/29 
f 68/16/29 83/31/29 80/28/29 65/13/29 
f 84/9/29 64/12/29 63/11/29 85/10/29 
f 86/13/29 87/16/29 88/15/29 89/14/29 
f 90/17/29 72/20/29 71/19/29 91/18/29 
s 10
f 92/21/29 93/23/29 85/10/29 94/22/29 
s 4
f 93/23/29 95/24/29 84/9/29 85/10/29 
s 8
f 95/24/29 96/25/29 91/18/29 84/9/29 
s 16
f 96/25/29 97/26/29 89/14/29 91/18/29 
s 2
f 97/26/29 98/27/29 86/13/29 89/14/29 
s 13
f 98/27/29 99/29/29 100/28/29 86/13/29 
s 1
f 85/10/29 63/11/29 82/30/29 94/22/29 
f 64/12/29 84/9/29 91/18/29 71/19/29 
f 89/14/29 88/15/29 90/17/29 91/18/29 
f 87/16/29 86/13/29 100/28/29 101/31/29 
f 102/9/29 103/12/29 104/11/29 105/10/29 
f 106/13/29 68/16/29 67/15/29 107/14/29 
f 69/17/29 72/20/29 108/19/29 109/18/29 
s 10
f 110/21/29 111/23/29 105/10/29 112/22/29 
s 4
f 111/23/29 113/24/29 102/9/29 105/10/29 
s 8
f 113/24/29 114/25/29 109/18/29 102/9/29 
s 16
f 114/25/29 115/26/29 107/14/29 109/18/29 
s 2
f 115/26/29 116/27/29 106/13/29 107/14/29 
s 13
f 116/27/29 117/29/29 118/28/29 106/13/29 
s 1
f 105/10/29 104/11/29 119/30/29 112/22/29 
f 103/12/29 102/9/29 109/18/29 108/19/29 
f 107/14/29 67/15/29 69/17/29 109/18/29 
f 68/16/29 106/13/29 118/28/29 83/31/29 
f 120/9/29 121/10/29 104/11/29 103/12/29 
f 122/13/29 123/14/29 88/15/29 87/16/29 
f 90/17/29 124/18/29 108/19/29 72/20/29 
s 10
f 125/21/29 126/22/29 121/10/29 127/23/29 
s 4
f 127/23/29 121/10/29 120/9/29 128/24/29 
s 8
f 128/24/29 120/9/29 124/18/29 129/25/29 
s 16
f 129/25/29 124/18/29 123/14/29 130/26/29 
s 2
f 130/26/29 123/14/29 122/13/29 131/27/29 
s 13
f 131/27/29 122/13/29 132/28/29 133/29/29 
s 1
f 121/10/29 126/22/29 119/30/29 104/11/29 
f 103/12/29 108/19/29 124/18/29 120/9/29 
f 123/14/29 124/18/29 90/17/29 88/15/29 
f 87/16/29 101/31/29 132/28/29 122/13/29 
# 52 polygons

