# 3ds Max Wavefront OBJ Exporter v0.97b - (c)2007 guruware
# File Created: 27.01.2018 19:31:43

mtllib Road-Straight.mtl

#
# object Road_Straight
#

v  5.0000 0.0000 -3.0000
v  0.0000 0.0000 -3.0000
v  0.0000 0.0000 -0.0000
v  5.0000 0.0000 -0.0000
v  -5.0000 0.0000 -3.0000
v  -5.0000 0.0000 -0.0000
v  5.0000 0.0000 3.0000
v  0.0000 0.0000 3.0000
v  -5.0000 0.0000 3.0000
# 9 vertices

vn 0.0000 1.0000 -0.0000
# 1 vertex normals

vt 0.9892 0.6008 0.0000
vt 0.4993 0.6008 0.0000
vt 0.4993 0.3068 0.0000
vt 0.9892 0.3068 0.0000
vt 0.0093 0.6008 0.0000
vt 0.0093 0.3068 0.0000
vt 0.9892 0.0128 0.0000
vt 0.4993 0.0128 0.0000
vt 0.0093 0.0128 0.0000
# 9 texture coords

g Road_Straight
usemtl Road_Straightlt
s 31
f 1/1/1 2/2/1 3/3/1 4/4/1 
f 5/5/1 6/6/1 3/3/1 2/2/1 
f 7/7/1 4/4/1 3/3/1 8/8/1 
f 9/9/1 8/8/1 3/3/1 6/6/1 
# 4 polygons

#
# object Sidewalk_Straight
#

v  -5.0000 0.0000 -3.0000
v  5.0000 0.0000 -3.0000
v  5.0000 0.2000 -3.0000
v  -5.0000 0.2000 -3.0000
v  5.0000 0.2000 -5.0000
v  -5.0000 0.2000 -5.0000
v  -5.0000 0.0000 3.0000
v  -5.0000 0.2000 3.0000
v  5.0000 0.2000 3.0000
v  5.0000 0.0000 3.0000
v  -5.0000 0.2000 5.0000
v  5.0000 0.2000 5.0000
# 12 vertices

vn 0.0000 0.0000 1.0000
vn 1.0000 0.0000 -0.0000
vn 0.0000 1.0000 -0.0000
vn 0.0000 0.0000 -1.0000
vn 0.0000 1.0000 0.0000
# 5 vertex normals

vt 0.0289 0.9437 0.0000
vt 0.0289 0.0224 0.0000
vt 0.0473 0.0224 0.0000
vt 0.0473 0.9437 0.0000
vt 0.2316 0.0224 0.0000
vt 0.2316 0.9437 0.0000
# 6 texture coords

g Sidewalk_Straight
usemtl Sidewalk_Straight
s 2
f 10/10/2 10/10/3 11/11/2 11/11/3 12/12/2 13/13/2 
s 9
f 13/13/4 12/12/4 14/14/4 15/15/4 
s 2
f 16/10/5 17/13/5 18/12/5 19/11/3 19/11/5 16/10/3 
s 9
f 17/13/6 20/15/6 21/14/6 18/12/6 
# 4 polygons

